<svg xmlns="http://www.w3.org/2000/svg" xmlns:xlink="http://www.w3.org/1999/xlink" width="500" zoomAndPan="magnify" viewBox="0 0 375 374.999991" height="500" preserveAspectRatio="xMidYMid meet" version="1.0"><defs><g/></defs><g fill="#f44637" fill-opacity="1"><g transform="translate(18.044754, 326.267805)"><g><path d="M 331.9375 0 L 201.8125 0 C 191.664062 2.132812 181.519531 3.203125 171.375 3.203125 C 144.675781 3.203125 119.984375 -3.332031 97.296875 -16.40625 C 74.609375 -29.488281 56.65625 -47.304688 43.4375 -69.859375 C 30.226562 -92.421875 23.625 -117.316406 23.625 -144.546875 C 23.625 -170.972656 30.296875 -195.53125 43.640625 -218.21875 C 56.992188 -240.90625 74.945312 -258.988281 97.5 -272.46875 C 120.050781 -285.957031 144.675781 -292.703125 171.375 -292.703125 C 197.800781 -292.703125 222.359375 -285.957031 245.046875 -272.46875 C 267.734375 -258.988281 285.816406 -240.90625 299.296875 -218.21875 C 312.785156 -195.53125 319.53125 -170.972656 319.53125 -144.546875 C 319.53125 -123.992188 315.523438 -104.503906 307.515625 -86.078125 C 299.503906 -67.660156 288.289062 -51.644531 273.875 -38.03125 L 331.9375 -38.03125 Z M 63.671875 -144.140625 C 63.671875 -124.390625 68.472656 -106.101562 78.078125 -89.28125 C 87.691406 -72.46875 100.835938 -59.125 117.515625 -49.25 C 134.203125 -39.375 152.421875 -34.4375 172.171875 -34.4375 C 191.929688 -34.4375 210.019531 -39.304688 226.4375 -49.046875 C 242.851562 -58.796875 255.796875 -72.144531 265.265625 -89.09375 C 274.742188 -106.039062 279.484375 -124.523438 279.484375 -144.546875 C 279.484375 -164.296875 274.675781 -182.578125 265.0625 -199.390625 C 255.457031 -216.210938 242.378906 -229.5625 225.828125 -239.4375 C 209.273438 -249.320312 191.125 -254.265625 171.375 -254.265625 C 151.625 -254.265625 133.472656 -249.257812 116.921875 -239.25 C 100.367188 -229.238281 87.351562 -215.820312 77.875 -199 C 68.40625 -182.1875 63.671875 -163.898438 63.671875 -144.140625 Z M 63.671875 -144.140625 "/></g></g></g></svg>